<?xml version="1.0" encoding="UTF-8"?><svg id="Layer_2" xmlns="http://www.w3.org/2000/svg" viewBox="0 0 933.14 245.99"><defs><style>.cls-1{fill:#033778;}.cls-2{fill:#fff;}.cls-3{fill:#515455;}</style></defs><g id="Ebene_1"><g><path class="cls-3" d="M284.62,217.97c24.42-3.86,24.02-10.28,24.02-35.99V66.31c0-26.99,1.68-35.99-17.6-39.84,0,0-4.1-.71-4.1-4.21s0-3.5,0-3.5h130.52s3.77-.14,4.27,4.09c.5,4.24,4.78,40.48,5.14,43.46,.36,2.98-6.43,2.57-6.43,2.57-10.28-26.99-24.42-35.99-44.98-37.27l-39.84-1.65V113.41l30.84-.83c24.42-.96,29.56-1.05,33.42-21.61,0,0,.41-4.09,3.42-4.09h3.01v66.83h-3.01c-3.08,0-3.42-4.09-3.42-4.09-3.86-23.13-9-21.93-33.42-22.9l-30.84-.89v56.15c0,23.78,6.43,30.85,33.41,30.85,32.13,0,47.56-10.28,62.98-42.41,0,0,7.15-.38,6.42,2.57-.72,2.95-11.57,44.51-12.85,48.6-1.28,4.1-8.12,4.1-8.12,4.1h-136.95s0-.02,0-3.86,4.09-3.85,4.09-3.85"/><path class="cls-3" d="M529.64,123.43c-7.71,.25-19.47-.17-27.56-3.37V31.99c36.29,.41,60.18,9.59,64.26,44.94,2.07,17.87-10.08,45.62-36.7,46.49M929.05,26.47s4.09-.72,4.09-4.21v-3.5h-165.48v3.5c0,3.49,4.09,4.22,4.09,4.22,24.42,3.86,26.27,8.67,26.59,34.69l-1.31,116.08S683.61,22.85,682.14,20.81c-1.47-2.05-4.48-2.05-4.48-2.05h-48.42v3.5c0,3.17,4.1,4.21,4.1,4.21,26.35,9.32,26.75,14.14,26.75,50.45v.96l-.4,105.39c-.58,26.79-7.76,32.97-19.07,32.97-41.72,0-88.85-86.44-88.85-86.44,13.85-6.37,40.56-24.83,40.56-57.64s-24.55-53.39-57.97-53.39c-16.71,0-82.25,0-82.25,0v3.49c0,3.14,4.09,4.21,4.09,4.21,20.56,7.71,18.88,15.43,18.88,41.14v114.15c0,25.71,.4,32.13-25.3,35.99,0,0-4.09,.45-4.09,4.08v3.63h87.07v-3.63c0-3.64-4.09-4.08-4.09-4.08-26.99-3.86-26.59-9-26.59-35.99v-44.98c10.26,2.03,26.13,.35,26.13,.35,24.22,40.47,38.72,67.34,57.32,79.62,17.11,11.3,30.87,8.94,70.05,8.94h58.09v-3.86c0-3.49-4.1-3.85-4.1-3.85-24.42-5.14-30.28-7.71-30.61-34.7l-1.29-123.22s121.08,162.89,122.59,164.9,4.16,2.04,4.16,2.04l4.3-.02s3.77,.02,3.77-4.1c0-1.97,2.37-162.97,2.37-162.97,.65-25.7,9.72-33.41,31.6-33.41s30.27,10.29,30.27,34.69v120.81c0,25.71,.4,32.13-25.31,35.99,0,0-4.09,.42-4.09,3.85v3.86h85.79v-3.86c0-3.52-4.09-3.85-4.09-3.85-25.71-3.86-25.31-10.6-25.31-35.99V61.17c0-25.06-.08-30.52,25.31-34.7"/><path class="cls-1" d="M172.74,98.32c3.97-5.31,6.76-12.36,8.09-19.11,3.6-18.25-8.94-31.15-25.73-26.52-5.85,1.61-11.94,4.76-16.32,9.08-18.69,18.43-24.19,40.22-23.42,70.42,22.29-6.66,42.99-14.59,57.38-33.87"/><path class="cls-2" d="M158.22,178.37c-27.08,.26-40.34-12.31-42.19-34.22,0,0,35.41-12.27,45.69-17.01,.93-.43,1.87-.85,2.8-1.3,18-8.72,33.42-21.4,42.44-41.18,10.83-23.76,2.31-50.74-18.89-59.26-12.68-5.1-25.32-3.58-37.68,.51-29.5,9.77-52.51,28.9-69.35,56.3-15.19,24.72-23.06,51.64-16.74,82.05,4.89,23.56,21.12,40.17,43.49,43.14,23.29,3.09,52.48-1,76.66-11.8,8.35-9.72,15.48-20.34,21.31-31.96,2.62-5.22,4.92-10.55,6.96-15.98-6.51,16.3-36.05,29.75-54.51,30.71m-19.45-116.6c4.38-4.32,10.47-7.47,16.32-9.08,16.79-4.63,29.33,8.27,25.73,26.52-1.33,6.76-4.13,13.8-8.09,19.11-14.39,19.28-35.08,27.21-57.38,33.87-.77-30.21,4.73-52,23.42-70.43"/><path class="cls-1" d="M40.38,147.01c-5.34,1.34-8.58,6.75-7.24,12.08,1.34,5.34,6.75,8.58,12.08,7.24,5.34-1.33,8.58-6.75,7.24-12.08-1.34-5.34-6.75-8.58-12.08-7.24"/><path class="cls-2" d="M45.22,166.34c5.17-1.29,8.36-6.42,7.34-11.59-.03-.16-.06-.33-.1-.49-1.34-5.34-6.75-8.58-12.08-7.24-4.67,1.17-7.74,5.46-7.53,10.09,.03,.66,.12,1.33,.29,2,1.34,5.34,6.75,8.58,12.08,7.24"/><path class="cls-1" d="M45.22,166.34c-5.34,1.34-10.75-1.91-12.08-7.24-1.34-5.33,1.9-10.75,7.24-12.08,5.34-1.34,10.75,1.9,12.08,7.24,1.34,5.34-1.91,10.75-7.24,12.08M226.92,18.87c0-.89-.41-1.24-1.21-1.48-2.38-.71-4.73-1.54-7.11-2.25-19.6-5.91-39.56-10.12-59.9-12.57C145.74,1.01,126.55,.14,113.51,0h0c-13.04,.14-32.22,1.01-45.18,2.57C47.99,5.02,28.03,9.23,8.43,15.14c-2.38,.72-4.73,1.54-7.11,2.25-.8,.24-1.21,.59-1.21,1.48-.02,14.37-.2,28.74-.05,43.11,.07,7.43,.61,14.87,1.14,22.29,.92,12.91,2.75,25.7,5.63,38.34,3.23,14.22,7.87,27.95,14.43,41.02,9.16,18.25,21.53,34.06,36.78,47.72,15.66,14.03,35.71,25.1,54.54,34.43,.27,.13,.58,.2,.89,.2h.1c.31,0,.62-.07,.89-.2,18.83-9.34,38.88-20.4,54.54-34.43,5.54-4.96,10.7-10.22,15.46-15.76-7.96,3.56-16.47,6.37-25.13,8.46-17.14,4.13-34.88,5.33-50.2,3.49-.44-.05-.89-.09-1.32-.15-.8-.11-1.57-.27-2.35-.41-21.14-3.79-36.42-20.01-41.14-42.73-3.55-17.11-2.62-33.11,1.58-48.23,3.27-11.76,8.51-23,15.16-33.82,11.07-18.01,24.83-32.43,41.32-42.98,4.59-2.94,9.39-5.57,14.41-7.9,4.38-2.03,8.9-3.86,13.61-5.42,1.38-.46,2.76-.88,4.15-1.26,10.3-2.88,20.78-3.67,31.3-.07,.74,.25,1.48,.52,2.23,.82,21.2,8.52,29.72,35.5,18.89,59.26-9.01,19.78-24.44,32.46-42.44,41.19-.78,.38-1.65,.78-2.55,1.18-.08,.04-.16,.07-.24,.11-10.28,4.74-45.69,17.01-45.69,17.01,.58,6.85,2.27,12.78,5.15,17.7,6.34,10.82,18.42,16.7,37.04,16.52,.43-.02,.86-.06,1.3-.09,.16-.01,.31-.02,.46-.03,.05,0,.1-.01,.14-.02,18.52-1.73,46.31-14.82,52.6-30.57,0,.01-.01,.03-.02,.04,0-.01,.01-.03,.02-.04,3.07-8.15,5.52-16.51,7.47-25.05,2.87-12.64,4.7-25.43,5.63-38.34,.53-7.42,1.07-14.85,1.14-22.29,.15-14.37-.03-28.74-.05-43.11"/></g></g></svg>